<svg xmlns="http://www.w3.org/2000/svg" xmlns:xlink="http://www.w3.org/1999/xlink" width="373" height="812" viewBox="0 0 373 812"><defs><clipPath id="a"><rect width="373" height="812" transform="translate(2)" fill="#fff" stroke="#707070" stroke-width="1"/></clipPath></defs><g transform="translate(-2)" clip-path="url(#a)"><g transform="translate(15 -197)"><path d="M1403,1159.91s343.537,163.984,607.95,87.991,290.454-73.993,416.651-22,260.407-143.986,412.645-77.992,328.514-85.991,390.611-22S3323,1203.906,3323,1203.906V264H1403Z" transform="translate(-1418 -270)" fill="#a1a4ff" opacity="0.79"/><path d="M1403,1159.91s343.537,163.984,607.95,87.991,290.454-73.993,416.651-22,260.407-143.986,412.645-77.992,328.514-85.991,390.611-22S3323,1203.906,3323,1203.906V264H1403Z" transform="translate(-1418 -278)" fill="#0b13ef"/><g transform="translate(-14 -4)"><g transform="translate(63 767)"><path d="M1538.594,800l-30.857,35.41h22.549L1493.495,877.9h28.483L1484,923.429h54.594Z" transform="translate(-1484 -800)" fill="#fff"/><path d="M1484,800l30.857,35.41h-22.549L1529.1,877.9h-28.483l37.978,45.527H1484Z" transform="translate(-1430.593 -800)" fill="#fff"/></g><path d="M101,876.429,103,938l22,8V876.429Z" transform="translate(4)" fill="#fff"/></g><g transform="translate(-92.794 242.981) rotate(-8)"><g transform="translate(1637 690)"><path d="M1538.594,800l-30.857,35.41h22.549L1493.495,877.9h28.483L1484,923.429h54.594Z" transform="translate(-1484 -800)" fill="#fff"/><path d="M1484,800l30.857,35.41h-22.549L1529.1,877.9h-28.483l37.978,45.527H1484Z" transform="translate(-1430.593 -800)" fill="#fff"/></g><path d="M101,876.429l1.861,62.456L123.333,947V876.429Z" transform="translate(1578.667 -67)" fill="#fff"/></g><g transform="translate(1473 -12)"><g transform="translate(63 767)"><path d="M1528.834,800l-25.341,29.08h18.518l-30.214,34.9h23.391L1484,901.363h44.834Z" transform="translate(-1484 -800)" fill="#fff"/><path d="M1484,800l25.341,29.08h-18.518l30.214,34.9h-23.391l31.189,37.388H1484Z" transform="translate(-1440.141 -800)" fill="#fff"/></g><path d="M101,876.429l1.642,50.564,18.067,6.57V876.429Z" transform="translate(-3.508 -19.563)" fill="#fff"/></g><g transform="translate(103 85.667)"><g transform="translate(63 767)"><path d="M1520.4,800l-20.571,23.607h15.033l-24.527,28.328h18.989L1484,882.286h36.4Z" transform="translate(-1484 -800)" fill="#fff"/><path d="M1484,800l20.571,23.607h-15.033l24.527,28.328h-18.989l25.319,30.351H1484Z" transform="translate(-1448.396 -800)" fill="#fff"/></g><path d="M101,876.429l1.333,41.048L117,922.809V876.429Z" transform="translate(-10 -36.476)" fill="#fff"/></g><g transform="translate(-56 -13)"><g transform="translate(303 882.667)"><path d="M1520.4,800l-20.571,23.607h15.033l-24.527,28.328h18.989L1484,882.286h36.4Z" transform="translate(-1484 -800)" fill="#fff"/><path d="M1484,800l20.571,23.607h-15.033l24.527,28.328h-18.989l25.319,30.351H1484Z" transform="translate(-1448.396 -800)" fill="#fff"/></g><path d="M333,964.952v29.714L349,1000V964.952Z" transform="translate(-2)" fill="#fff"/></g></g></g></svg>