<svg xmlns="http://www.w3.org/2000/svg" width="1923.5" height="151.343" viewBox="0 0 1923.5 151.343"><g transform="translate(2.382 -931.916)"><path d="M3611,1923.085s243.514-44.183,403.682,0,283.26,38.594,423.164,0,319.83-46.312,487.715,0,222.938,34.46,347.855,0,258.2,44.3,258.2,44.3V2008H3611Z" transform="matrix(1, -0.017, 0.017, 1, -3645.329, -861.923)" fill="#a1a4ff" stroke="#707070" stroke-width="1"/><path d="M3611,1923.085s243.514-44.183,403.682,0,283.26,38.594,423.164,0,319.83-46.312,487.715,0,222.938,34.46,347.855,0,258.2,44.3,258.2,44.3V2008H3611Z" transform="translate(-3611 -928)" fill="#1008f6" stroke="#707070" stroke-width="1"/></g></svg>