<svg xmlns="http://www.w3.org/2000/svg" width="2015.581" height="150.833" viewBox="0 0 2015.581 150.833"><g transform="translate(65.813 -931.918)"><path d="M3611,1923.085s247.227-44.183,409.836,0,287.578,38.594,429.615,0,324.706-46.312,495.15,0,226.336,34.46,353.159,0,262.138,44.3,262.138,44.3V2008H3611Z" transform="matrix(1, -0.017, 0.017, 1, -3645.329, -861.923)" fill="#a1a4ff"/><path d="M3611,1923.085s255.426-44.183,423.427,0,297.115,38.594,443.862,0,335.474-46.312,511.571,0,233.842,34.46,364.871,0,270.831,44.3,270.831,44.3V2008H3611Z" transform="translate(-3676.814 -928)" fill="#1008f6"/></g></svg>